<?xml version="1.0" standalone="no"?>
<!DOCTYPE svg PUBLIC "-//W3C//DTD SVG 20010904//EN"
 "http://www.w3.org/TR/2001/REC-SVG-20010904/DTD/svg10.dtd">
<svg version="1.0" xmlns="http://www.w3.org/2000/svg"
 width="700.000000pt" height="700.000000pt" viewBox="0 0 700.000000 700.000000"
 preserveAspectRatio="xMidYMid meet">
<metadata>
Created by potrace 1.14, written by Peter Selinger 2001-2017
</metadata>
<g transform="translate(0.000000,700.000000) scale(0.100000,-0.100000)"
fill="#000000" stroke="none">
<path d="M5799 6539 c-49 -29 -72 -72 -72 -130 1 -59 21 -89 85 -130 38 -25
57 -45 74 -83 13 -27 21 -53 18 -57 -6 -10 -147 -77 -178 -85 -21 -5 -26 0
-41 40 -18 47 -21 79 -12 136 7 51 -1 84 -31 120 -71 83 -205 63 -248 -37 -32
-75 -6 -144 71 -191 32 -19 53 -43 75 -84 l31 -57 -97 -46 c-53 -25 -101 -45
-106 -45 -18 0 -56 104 -49 135 12 62 7 129 -14 157 -82 112 -261 63 -271 -73
-4 -59 21 -101 85 -146 42 -29 60 -50 78 -90 l23 -53 -59 -30 c-89 -45 -132
-135 -101 -211 l13 -31 -934 -934 c-514 -514 -937 -934 -940 -934 -6 0 -33 89
-44 145 -7 37 -7 190 0 230 13 74 19 94 43 155 31 81 80 159 145 230 27 30 63
84 81 120 59 123 36 276 -57 372 -115 119 -299 139 -432 47 -66 -45 -171 -164
-237 -269 -82 -128 -161 -310 -183 -419 -35 -174 -87 -287 -176 -384 -126
-138 -281 -213 -482 -233 -32 -3 -68 -7 -80 -10 -12 -2 -38 -7 -57 -10 -45 -7
-193 -49 -245 -69 -22 -9 -48 -18 -59 -22 -74 -24 -307 -162 -390 -232 -150
-124 -316 -327 -404 -493 -61 -117 -131 -308 -148 -408 -3 -14 -9 -47 -14 -75
-33 -174 -29 -387 11 -587 177 -892 1074 -1451 1957 -1222 144 37 283 94 407
167 135 79 323 241 427 367 67 81 156 223 203 325 41 87 99 246 109 296 2 13
9 45 15 71 6 26 14 76 17 110 21 222 82 366 208 490 99 98 198 150 356 188
193 46 349 112 420 176 22 20 54 66 72 102 29 59 33 76 32 147 0 65 -5 90 -27
136 -35 72 -93 130 -165 166 -49 24 -68 28 -142 27 -74 0 -95 -5 -159 -33
-127 -57 -206 -74 -326 -72 -105 2 -164 12 -242 42 -24 9 23 58 909 944 l935
935 41 -20 c54 -26 99 -25 153 3 40 22 55 43 175 243 158 264 161 266 265 239
131 -34 237 -11 328 71 174 156 135 442 -74 544 -43 21 -63 25 -140 24 -52 -1
-108 -7 -131 -16 l-42 -15 -21 44 c-21 43 -25 96 -12 143 11 39 -8 95 -45 131
-44 43 -120 51 -175 18z"/>
</g>
</svg>
